<svg width="9" height="17" viewBox="0 0 9 17" fill="none" xmlns="http://www.w3.org/2000/svg">
<path fill-rule="evenodd" clip-rule="evenodd" d="M8.69248 16.4423C8.63442 16.5005 8.56546 16.5467 8.48952 16.5782C8.41359 16.6097 8.33219 16.6259 8.24998 16.6259C8.16777 16.6259 8.08637 16.6097 8.01044 16.5782C7.93451 16.5467 7.86554 16.5005 7.80748 16.4423L0.307483 8.94233C0.249279 8.88427 0.2031 8.8153 0.171592 8.73937C0.140083 8.66344 0.123865 8.58204 0.123865 8.49983C0.123865 8.41762 0.140083 8.33622 0.171592 8.26029C0.2031 8.18436 0.249279 8.11539 0.307483 8.05733L7.80748 0.557329C7.92484 0.43997 8.08401 0.374041 8.24998 0.374041C8.41595 0.374041 8.57512 0.43997 8.69248 0.557329C8.80984 0.674687 8.87577 0.833859 8.87577 0.999829C8.87577 1.1658 8.80984 1.32497 8.69248 1.44233L1.63373 8.49983L8.69248 15.5573C8.75069 15.6154 8.79686 15.6844 8.82837 15.7603C8.85988 15.8362 8.8761 15.9176 8.8761 15.9998C8.8761 16.082 8.85988 16.1634 8.82837 16.2394C8.79686 16.3153 8.75069 16.3843 8.69248 16.4423Z" fill="#735BF3"/>
</svg>
