<svg width="9" height="17" viewBox="0 0 9 17" fill="none" xmlns="http://www.w3.org/2000/svg">
<path fill-rule="evenodd" clip-rule="evenodd" d="M0.307518 0.557671C0.365575 0.499467 0.434545 0.453289 0.510476 0.421781C0.586408 0.390273 0.667809 0.374054 0.750018 0.374054C0.832228 0.374054 0.913629 0.390273 0.989561 0.421781C1.06549 0.453289 1.13446 0.499467 1.19252 0.557671L8.69252 8.05767C8.75072 8.11573 8.7969 8.1847 8.82841 8.26063C8.85992 8.33656 8.87614 8.41796 8.87614 8.50017C8.87614 8.58238 8.85992 8.66378 8.82841 8.73971C8.7969 8.81564 8.75072 8.88461 8.69252 8.94267L1.19252 16.4427C1.07516 16.56 0.915988 16.626 0.750018 16.626C0.584049 16.626 0.424877 16.56 0.307518 16.4427C0.19016 16.3253 0.124229 16.1661 0.124229 16.0002C0.124229 15.8342 0.19016 15.675 0.307518 15.5577L7.36627 8.50017L0.307518 1.44267C0.249314 1.38461 0.203135 1.31564 0.171627 1.23971C0.140119 1.16378 0.123901 1.08238 0.123901 1.00017C0.123901 0.917962 0.140119 0.836561 0.171627 0.760629C0.203135 0.684698 0.249314 0.615728 0.307518 0.557671Z" fill="#735BF3"/>
</svg>
