<svg width="17" height="17" viewBox="0 0 17 17" fill="none" xmlns="http://www.w3.org/2000/svg">
<path d="M0.695488 1.63939C0.633511 1.57741 0.584348 1.50383 0.550806 1.42286C0.517264 1.34188 0.5 1.25509 0.5 1.16744C0.5 1.07979 0.517264 0.992998 0.550806 0.912021C0.584348 0.831044 0.633511 0.757465 0.695488 0.695488C0.757465 0.633511 0.831044 0.584348 0.912021 0.550806C0.992998 0.517264 1.07979 0.5 1.16744 0.5C1.25509 0.5 1.34188 0.517264 1.42286 0.550806C1.50383 0.584348 1.57741 0.633511 1.63939 0.695488L8.5 7.55743L15.3606 0.695488C15.4226 0.633511 15.4962 0.584348 15.5771 0.550806C15.6581 0.517264 15.7449 0.5 15.8326 0.5C15.9202 0.5 16.007 0.517264 16.088 0.550806C16.169 0.584348 16.2425 0.633511 16.3045 0.695488C16.3665 0.757465 16.4157 0.831044 16.4492 0.912021C16.4827 0.992998 16.5 1.07979 16.5 1.16744C16.5 1.25509 16.4827 1.34188 16.4492 1.42286C16.4157 1.50383 16.3665 1.57741 16.3045 1.63939L9.44257 8.5L16.3045 15.3606C16.3665 15.4226 16.4157 15.4962 16.4492 15.5771C16.4827 15.6581 16.5 15.7449 16.5 15.8326C16.5 15.9202 16.4827 16.007 16.4492 16.088C16.4157 16.169 16.3665 16.2425 16.3045 16.3045C16.2425 16.3665 16.169 16.4157 16.088 16.4492C16.007 16.4827 15.9202 16.5 15.8326 16.5C15.7449 16.5 15.6581 16.4827 15.5771 16.4492C15.4962 16.4157 15.4226 16.3665 15.3606 16.3045L8.5 9.44257L1.63939 16.3045C1.57741 16.3665 1.50383 16.4157 1.42286 16.4492C1.34188 16.4827 1.25509 16.5 1.16744 16.5C1.07979 16.5 0.992998 16.4827 0.912021 16.4492C0.831044 16.4157 0.757465 16.3665 0.695488 16.3045C0.633511 16.2425 0.584348 16.169 0.550806 16.088C0.517264 16.007 0.5 15.9202 0.5 15.8326C0.5 15.7449 0.517264 15.6581 0.550806 15.5771C0.584348 15.4962 0.633511 15.4226 0.695488 15.3606L7.55743 8.5L0.695488 1.63939Z" fill="#735BF3"/>
</svg>
