<svg width="249" height="47" viewBox="0 0 249 47" fill="none" xmlns="http://www.w3.org/2000/svg">
    <path d="M26.3983 15.8253C26.3983 15.4813 26.1714 15.1785 25.841 15.0814L0.995491 7.78371C0.498208 7.63765 -1.09673e-05 8.00993 -1.09673e-05 8.52758V37.9264C-1.09673e-05 38.2703 0.2269 38.5732 0.557332 38.6702L25.4028 45.9679C25.9001 46.114 26.3983 45.7417 26.3983 45.2241V15.8253Z" fill="#F6D55C" style="--darkreader-inline-fill: #6e5706;" data-darkreader-inline-fill=""></path>
    <path d="M34.1633 11.9538C34.1633 11.6099 33.9364 11.307 33.6059 11.21L8.76041 3.91225C8.26313 3.76619 7.76491 4.13847 7.76491 4.65612V34.0549C7.76491 34.3989 7.99182 34.7017 8.32226 34.7988L33.1678 42.0965C33.665 42.2425 34.1633 41.8703 34.1633 41.3526V11.9538Z" fill="white" opacity="0.85" style="--darkreader-inline-fill: #181a1b;" data-darkreader-inline-fill=""></path>
    <path d="M57.4559 15.8253C57.4559 15.4813 57.6828 15.1785 58.0132 15.0814L82.8587 7.78371C83.356 7.63765 83.8542 8.00993 83.8542 8.52758V37.9264C83.8542 38.2703 83.6273 38.5732 83.2969 38.6702L58.4514 45.9679C57.9541 46.114 57.4559 45.7417 57.4559 45.2241V15.8253Z" fill="#F6D55C" style="--darkreader-inline-fill: #6e5706;" data-darkreader-inline-fill=""></path>
    <path d="M49.6909 11.9538C49.6909 11.6099 49.9179 11.307 50.2483 11.21L75.0938 3.91225C75.5911 3.76619 76.0893 4.13847 76.0893 4.65612V34.0549C76.0893 34.3989 75.8624 34.7017 75.532 34.7988L50.6865 42.0965C50.1892 42.2425 49.6909 41.8703 49.6909 41.3526V11.9538Z" fill="#2FD385" style="--darkreader-inline-fill: #23a778;" data-darkreader-inline-fill=""></path>
    <path d="M41.926 8.07358C41.926 7.72961 42.1529 7.42676 42.4834 7.3297L67.3289 0.0320005C67.8262 -0.114063 68.3244 0.258224 68.3244 0.775874V30.1747C68.3244 30.5186 68.0975 30.8215 67.767 30.9185C59.1534 33.4486 50.5401 35.9798 41.926 38.5086V8.07358Z" fill="white" style="--darkreader-inline-fill: #181a1b;" data-darkreader-inline-fill=""></path>
    <path d="M41.9263 8.07358C41.9263 7.72961 41.6993 7.42676 41.3689 7.3297L16.5234 0.0320005C16.0261 -0.114063 15.5279 0.258224 15.5279 0.775874V30.1747C15.5279 30.5186 15.7548 30.8215 16.0852 30.9185C24.6989 33.4486 33.3122 35.9798 41.9263 38.5086V8.07358Z" fill="#2FD385" opacity="0.8" style="--darkreader-inline-fill: #23a778;" data-darkreader-inline-fill=""></path>
    <path d="M104.656 41.9499H100.573L99.7251 44.2212H98L101.81 34.1581H103.535L107.344 44.2212H105.504L104.656 41.9499ZM101.134 40.4548H104.095L102.629 36.3145L101.134 40.4548Z" fill="#F6D55C" style="--darkreader-inline-fill: #f6d55d;" data-darkreader-inline-fill=""></path>
    <path d="M108.849 34.1581H117.044V44.2212H115.318V35.6532H110.574V44.2212H108.849V34.1581Z" fill="#F6D55C" style="--darkreader-inline-fill: #f6d55d;" data-darkreader-inline-fill=""></path>
    <path d="M119.631 34.1581H123.297C124.648 34.1581 125.645 34.4504 126.287 35.0351C126.929 35.6101 127.25 36.3864 127.25 37.364C127.25 38.3415 126.929 39.1226 126.287 39.7072C125.645 40.2823 124.648 40.5698 123.297 40.5698H121.356V44.2212H119.631V34.1581ZM123.153 39.0747C123.604 39.0747 123.982 39.0411 124.289 38.9741C124.596 38.8974 124.84 38.792 125.022 38.6578C125.204 38.514 125.334 38.3367 125.41 38.1259C125.487 37.9054 125.525 37.6515 125.525 37.364C125.525 37.0764 125.487 36.8273 125.41 36.6164C125.334 36.4056 125.204 36.2283 125.022 36.0845C124.84 35.9407 124.596 35.8353 124.289 35.7682C123.982 35.6916 123.604 35.6532 123.153 35.6532H121.356V39.0747H123.153Z" fill="#F6D55C" style="--darkreader-inline-fill: #f6d55d;" data-darkreader-inline-fill=""></path>
    <path d="M133.219 44.3794C132.605 44.3794 132.021 44.2835 131.465 44.0919C130.909 43.9002 130.42 43.6031 129.998 43.2006C129.577 42.7884 129.241 42.2613 128.992 41.6192C128.743 40.9675 128.618 40.1816 128.618 39.2616V38.9741C128.618 38.0923 128.743 37.34 128.992 36.717C129.241 36.0845 129.577 35.567 129.998 35.1644C130.42 34.7619 130.909 34.4696 131.465 34.2875C132.021 34.0958 132.605 34 133.219 34C133.832 34 134.417 34.0958 134.972 34.2875C135.528 34.4696 136.017 34.7619 136.439 35.1644C136.861 35.567 137.196 36.0845 137.445 36.717C137.694 37.34 137.819 38.0923 137.819 38.9741V39.2616C137.819 40.1816 137.694 40.9675 137.445 41.6192C137.196 42.2613 136.861 42.7884 136.439 43.2006C136.017 43.6031 135.528 43.9002 134.972 44.0919C134.417 44.2835 133.832 44.3794 133.219 44.3794ZM133.219 42.8555C133.573 42.8555 133.918 42.7932 134.254 42.6686C134.589 42.5441 134.886 42.3428 135.145 42.0649C135.404 41.7773 135.61 41.4036 135.763 40.9435C135.926 40.4835 136.008 39.9229 136.008 39.2616V38.9741C136.008 38.3415 135.926 37.8096 135.763 37.3783C135.61 36.9375 135.404 36.5829 135.145 36.3145C134.886 36.0366 134.589 35.8353 134.254 35.7107C133.918 35.5861 133.573 35.5238 133.219 35.5238C132.854 35.5238 132.505 35.5861 132.169 35.7107C131.834 35.8353 131.537 36.0366 131.278 36.3145C131.019 36.5829 130.813 36.9375 130.66 37.3783C130.506 37.8096 130.43 38.3415 130.43 38.9741V39.2616C130.43 39.9229 130.506 40.4835 130.66 40.9435C130.813 41.4036 131.019 41.7773 131.278 42.0649C131.537 42.3428 131.834 42.5441 132.169 42.6686C132.505 42.7932 132.854 42.8555 133.219 42.8555Z" fill="#F6D55C" style="--darkreader-inline-fill: #f6d55d;" data-darkreader-inline-fill=""></path>
    <path d="M139.903 34.1581H146.732V35.6532H141.629V37.9534H143.713C144.384 37.9534 144.969 38.03 145.467 38.1834C145.965 38.3271 146.377 38.538 146.703 38.8159C147.029 39.0843 147.269 39.4149 147.422 39.8079C147.585 40.1912 147.666 40.6177 147.666 41.0873C147.666 41.5569 147.585 41.9882 147.422 42.3811C147.269 42.7645 147.029 43.0951 146.703 43.3731C146.377 43.6414 145.965 43.8523 145.467 44.0056C144.969 44.1494 144.384 44.2212 143.713 44.2212H139.903V34.1581ZM143.569 42.7262C144.02 42.7262 144.398 42.6926 144.705 42.6255C145.012 42.5489 145.256 42.4434 145.438 42.3093C145.62 42.1751 145.75 42.0074 145.826 41.8061C145.903 41.5953 145.941 41.3509 145.941 41.0729C145.941 40.8046 145.903 40.5698 145.826 40.3685C145.75 40.1672 145.62 39.9995 145.438 39.8654C145.256 39.7312 145.012 39.6305 144.705 39.5635C144.398 39.4868 144.02 39.4485 143.569 39.4485H141.629V42.7262H143.569Z" fill="#F6D55C" style="--darkreader-inline-fill: #f6d55d;" data-darkreader-inline-fill=""></path>
    <path d="M154.901 41.9499H150.819L149.97 44.2212H148.245L152.055 34.1581H153.78L157.59 44.2212H155.75L154.901 41.9499ZM151.379 40.4548H154.341L152.874 36.3145L151.379 40.4548Z" fill="#F6D55C" style="--darkreader-inline-fill: #f6d55d;" data-darkreader-inline-fill=""></path>
    <path d="M166.829 44.2212H159.095V34.1581H160.82V42.7262H165.42V34.1581H167.145V42.7262H168.439V46.0901H166.829V44.2212Z" fill="#F6D55C" style="--darkreader-inline-fill: #f6d55d;" data-darkreader-inline-fill=""></path>
    <path d="M170.157 34.1581H171.882V41.4898L176.828 34.1581H178.495V44.2212H176.77V36.8895L171.825 44.2212H170.157V34.1581Z" fill="#F6D55C" style="--darkreader-inline-fill: #f6d55d;" data-darkreader-inline-fill=""></path>
    <path d="M182.891 40.1672C182.143 39.9468 181.583 39.5874 181.209 39.0891C180.835 38.5811 180.648 37.9821 180.648 37.2921C180.648 36.832 180.73 36.4104 180.893 36.027C181.056 35.6436 181.295 35.313 181.612 35.0351C181.928 34.7571 182.321 34.5415 182.79 34.3881C183.27 34.2348 183.825 34.1581 184.458 34.1581H188.268V44.2212H186.542V40.3685H184.429L182.201 44.2212H180.361L182.891 40.1672ZM182.373 37.2921C182.373 37.8096 182.546 38.2121 182.891 38.4996C183.246 38.7872 183.864 38.9309 184.745 38.9309H186.542V35.6532H184.745C183.864 35.6532 183.246 35.797 182.891 36.0845C182.546 36.372 182.373 36.7745 182.373 37.2921Z" fill="#F6D55C" style="--darkreader-inline-fill: #f6d55d;" data-darkreader-inline-fill=""></path>
    <path d="M106.233 10.4711H98.5767V0.430319H100.739V8.69245H104.777V0.430319H106.939V8.69245H108.165V12.3358H106.233V10.4711Z" fill="white" style="--darkreader-inline-fill: #e8e6e3;" data-darkreader-inline-fill=""></path>
    <path d="M110.766 0.430319H112.929V7.10027L117.326 0.430319H119.417V10.4711H117.254V3.80115L112.842 10.4711H110.766V0.430319Z" fill="white" style="--darkreader-inline-fill: #e8e6e3;" data-darkreader-inline-fill=""></path>
    <path d="M126.983 10.0121C126.224 10.0121 125.546 9.90691 124.95 9.69653C124.364 9.47659 123.869 9.1658 123.465 8.76417C123.061 8.36254 122.754 7.88441 122.542 7.32977C122.331 6.76558 122.225 6.13922 122.225 5.45071V5.16383C122.225 4.55182 122.331 3.98284 122.542 3.4569C122.754 2.93095 123.061 2.48151 123.465 2.10856C123.869 1.72606 124.364 1.42962 124.95 1.21924C125.546 0.999297 126.224 0.889326 126.983 0.889326V0H129.146V0.889326C129.895 0.889326 130.563 0.999297 131.15 1.21924C131.746 1.42962 132.246 1.72606 132.649 2.10856C133.063 2.48151 133.375 2.93095 133.587 3.4569C133.798 3.98284 133.904 4.55182 133.904 5.16383V5.45071C133.904 6.13922 133.798 6.76558 133.587 7.32977C133.375 7.88441 133.063 8.36254 132.649 8.76417C132.246 9.1658 131.746 9.47659 131.15 9.69653C130.563 9.90691 129.895 10.0121 129.146 10.0121V10.9014H126.983V10.0121ZM131.669 5.16383C131.669 4.37969 131.457 3.77247 131.034 3.34215C130.612 2.91183 129.982 2.69667 129.146 2.69667V8.20475C130.828 8.20475 131.669 7.28674 131.669 5.45071V5.16383ZM124.474 5.45071C124.474 6.37829 124.676 7.07158 125.08 7.53059C125.483 7.98003 126.118 8.20475 126.983 8.20475V2.69667C126.137 2.69667 125.507 2.91183 125.094 3.34215C124.681 3.77247 124.474 4.37969 124.474 5.16383V5.45071Z" fill="white" style="--darkreader-inline-fill: #e8e6e3;" data-darkreader-inline-fill=""></path>
    <path d="M136.721 0.430319H140.614C141.979 0.430319 142.993 0.731542 143.656 1.33399C144.319 1.92687 144.651 2.72536 144.651 3.72943C144.651 4.73351 144.319 5.53677 143.656 6.13922C142.993 6.73211 141.979 7.02855 140.614 7.02855H138.884V10.4711H136.721V0.430319ZM140.398 5.2499C141.167 5.2499 141.705 5.1208 142.012 4.86261C142.33 4.60442 142.488 4.22669 142.488 3.72943C142.488 3.24174 142.33 2.86879 142.012 2.6106C141.705 2.34285 141.167 2.20897 140.398 2.20897H138.884V5.2499H140.398Z" fill="white" style="--darkreader-inline-fill: #e8e6e3;" data-darkreader-inline-fill=""></path>
    <path d="M151.644 10.6432C151.01 10.6432 150.404 10.5476 149.828 10.3563C149.261 10.1651 148.756 9.86387 148.314 9.45268C147.881 9.04149 147.535 8.51554 147.276 7.87484C147.016 7.22458 146.886 6.44045 146.886 5.52243V5.23555C146.886 4.35579 147.016 3.60512 147.276 2.98355C147.535 2.35241 147.881 1.83603 148.314 1.4344C148.756 1.03277 149.261 0.736324 149.828 0.545071C150.404 0.353818 151.01 0.258192 151.644 0.258192C152.279 0.258192 152.88 0.353818 153.447 0.545071C154.023 0.736324 154.528 1.03277 154.961 1.4344C155.403 1.83603 155.754 2.35241 156.013 2.98355C156.273 3.60512 156.402 4.35579 156.402 5.23555V5.52243C156.402 6.44045 156.273 7.22458 156.013 7.87484C155.754 8.51554 155.403 9.04149 154.961 9.45268C154.528 9.86387 154.023 10.1651 153.447 10.3563C152.88 10.5476 152.279 10.6432 151.644 10.6432ZM151.644 8.83589C151.971 8.83589 152.284 8.78329 152.582 8.67811C152.889 8.56335 153.158 8.37688 153.389 8.11869C153.62 7.8605 153.802 7.52102 153.937 7.10027C154.081 6.67951 154.153 6.15357 154.153 5.52243V5.23555C154.153 4.64267 154.081 4.14541 153.937 3.74378C153.802 3.34215 153.62 3.01702 153.389 2.76839C153.158 2.51976 152.889 2.34285 152.582 2.23766C152.284 2.12291 151.971 2.06553 151.644 2.06553C151.318 2.06553 151 2.12291 150.693 2.23766C150.395 2.34285 150.13 2.51976 149.9 2.76839C149.669 3.01702 149.482 3.34215 149.337 3.74378C149.203 4.14541 149.136 4.64267 149.136 5.23555V5.52243C149.136 6.15357 149.203 6.67951 149.337 7.10027C149.482 7.52102 149.669 7.8605 149.9 8.11869C150.13 8.37688 150.395 8.56335 150.693 8.67811C151 8.78329 151.318 8.83589 151.644 8.83589Z" fill="white" style="--darkreader-inline-fill: #e8e6e3;" data-darkreader-inline-fill=""></path>
    <path d="M159.283 0.430319H163.608C164.742 0.430319 165.579 0.669385 166.117 1.14752C166.655 1.61609 166.924 2.27113 166.924 3.11264C166.924 3.62903 166.795 4.07369 166.535 4.44663C166.285 4.81001 165.939 5.07299 165.497 5.23555C166.074 5.36943 166.525 5.64196 166.852 6.05316C167.189 6.45479 167.357 6.98074 167.357 7.631C167.357 8.06131 167.29 8.45338 167.155 8.8072C167.02 9.15146 166.809 9.4479 166.521 9.69653C166.242 9.94516 165.877 10.1364 165.425 10.2703C164.973 10.4042 164.43 10.4711 163.796 10.4711H159.283V0.430319ZM163.406 8.83589C164.079 8.83589 164.545 8.72114 164.805 8.49163C165.064 8.26213 165.194 7.92266 165.194 7.47321C165.194 7.02377 165.064 6.67473 164.805 6.4261C164.545 6.16791 164.074 6.03881 163.392 6.03881H161.445V8.83589H163.406ZM163.176 4.57573C163.762 4.57573 164.17 4.46098 164.401 4.23147C164.641 4.00197 164.762 3.69118 164.762 3.29911C164.762 2.89748 164.646 2.59148 164.416 2.3811C164.185 2.17072 163.776 2.06553 163.19 2.06553H161.445V4.57573H163.176Z" fill="white" style="--darkreader-inline-fill: #e8e6e3;" data-darkreader-inline-fill=""></path>
    <path d="M175.433 8.41991H171.698L170.934 10.4711H168.829L172.578 0.430319H174.741L178.489 10.4711H176.211L175.433 8.41991ZM172.362 6.64126H174.784L173.573 3.15567L172.362 6.64126Z" fill="white" style="--darkreader-inline-fill: #e8e6e3;" data-darkreader-inline-fill=""></path>
    <path d="M182.805 6.56954C182.084 6.34004 181.546 5.97188 181.19 5.46506C180.834 4.95823 180.657 4.35579 180.657 3.65771C180.657 3.17002 180.738 2.73014 180.902 2.33807C181.065 1.93644 181.305 1.59696 181.623 1.31965C181.94 1.03277 182.334 0.812825 182.805 0.659823C183.286 0.50682 183.843 0.430319 184.477 0.430319H188.587V10.4711H186.424V6.79904H184.823L182.589 10.4711H180.224L182.805 6.56954ZM182.819 3.65771C182.819 3.89678 182.853 4.10716 182.92 4.28885C182.988 4.47054 183.103 4.62354 183.266 4.74786C183.43 4.86261 183.641 4.95345 183.901 5.02039C184.17 5.07777 184.506 5.10646 184.91 5.10646H186.424V2.20897H184.91C184.506 2.20897 184.17 2.24244 183.901 2.30938C183.641 2.36676 183.43 2.4576 183.266 2.58192C183.103 2.69667 182.988 2.84489 182.92 3.02658C182.853 3.20827 182.819 3.41865 182.819 3.65771Z" fill="white" style="--darkreader-inline-fill: #e8e6e3;" data-darkreader-inline-fill=""></path>
    <path d="M102.253 27.6767C101.677 27.6767 101.138 27.6145 100.639 27.4902C100.139 27.3659 99.7014 27.1651 99.3265 26.8878C98.9516 26.6105 98.6488 26.2519 98.4181 25.812C98.1874 25.3721 98.0481 24.8366 98 24.2055H100.249C100.326 24.7505 100.542 25.1665 100.898 25.4534C101.254 25.7307 101.705 25.8694 102.253 25.8694C102.523 25.8694 102.782 25.8263 103.032 25.7403C103.282 25.6446 103.508 25.4964 103.71 25.2956C103.921 25.0852 104.094 24.8127 104.229 24.478C104.373 24.1433 104.469 23.7321 104.517 23.2444H101.028V21.5518H104.503C104.407 20.6721 104.152 20.0457 103.738 19.6728C103.335 19.2903 102.84 19.099 102.253 19.099C101.734 19.099 101.297 19.2329 100.941 19.5006C100.586 19.7684 100.355 20.1891 100.249 20.7629H98C98.0384 20.1605 98.173 19.6393 98.4037 19.1994C98.644 18.7595 98.9516 18.4009 99.3265 18.1236C99.711 17.8367 100.153 17.6264 100.653 17.4925C101.153 17.3586 101.686 17.2917 102.253 17.2917C102.897 17.2917 103.493 17.3921 104.041 17.5929C104.599 17.7841 105.079 18.0854 105.483 18.4966C105.896 18.8982 106.218 19.4146 106.449 20.0457C106.68 20.6673 106.795 21.4084 106.795 22.269V22.5559C106.795 23.4739 106.675 24.2581 106.435 24.9083C106.204 25.5586 105.882 26.0893 105.469 26.5005C105.065 26.9021 104.584 27.1986 104.027 27.3898C103.479 27.5811 102.888 27.6767 102.253 27.6767Z" fill="white" style="--darkreader-inline-fill: #e8e6e3;" data-darkreader-inline-fill=""></path>
    <path d="M109.682 17.4638H111.844V21.5518H112.709L115.939 17.4638H118.333L114.368 22.2116L118.477 27.5046H115.939L112.709 23.1297H111.844V27.5046H109.682V17.4638Z" fill="white" style="--darkreader-inline-fill: #e8e6e3;" data-darkreader-inline-fill=""></path>
    <path d="M125.042 27.6767C124.407 27.6767 123.802 27.5811 123.225 27.3898C122.658 27.1986 122.153 26.8973 121.711 26.4862C121.278 26.075 120.932 25.549 120.673 24.9083C120.413 24.2581 120.284 23.4739 120.284 22.5559V22.269C120.284 21.3893 120.413 20.6386 120.673 20.017C120.932 19.3859 121.278 18.8695 121.711 18.4679C122.153 18.0662 122.658 17.7698 123.225 17.5785C123.802 17.3873 124.407 17.2917 125.042 17.2917C125.676 17.2917 126.277 17.3873 126.844 17.5785C127.421 17.7698 127.925 18.0662 128.358 18.4679C128.8 18.8695 129.151 19.3859 129.41 20.017C129.67 20.6386 129.8 21.3893 129.8 22.269V22.5559C129.8 23.4739 129.67 24.2581 129.41 24.9083C129.151 25.549 128.8 26.075 128.358 26.4862C127.925 26.8973 127.421 27.1986 126.844 27.3898C126.277 27.5811 125.676 27.6767 125.042 27.6767ZM125.042 25.8694C125.368 25.8694 125.681 25.8168 125.979 25.7116C126.286 25.5968 126.555 25.4104 126.786 25.1522C127.017 24.894 127.199 24.5545 127.334 24.1337C127.478 23.713 127.55 23.187 127.55 22.5559V22.269C127.55 21.6761 127.478 21.1789 127.334 20.7773C127.199 20.3756 127.017 20.0505 126.786 19.8019C126.555 19.5532 126.286 19.3763 125.979 19.2711C125.681 19.1564 125.368 19.099 125.042 19.099C124.715 19.099 124.398 19.1564 124.09 19.2711C123.792 19.3763 123.528 19.5532 123.297 19.8019C123.066 20.0505 122.879 20.3756 122.735 20.7773C122.6 21.1789 122.533 21.6761 122.533 22.269V22.5559C122.533 23.187 122.6 23.713 122.735 24.1337C122.879 24.5545 123.066 24.894 123.297 25.1522C123.528 25.4104 123.792 25.5968 124.09 25.7116C124.398 25.8168 124.715 25.8694 125.042 25.8694Z" fill="white" style="--darkreader-inline-fill: #e8e6e3;" data-darkreader-inline-fill=""></path>
    <path d="M136.789 27.6767C136.126 27.6767 135.515 27.5811 134.958 27.3898C134.41 27.1986 133.934 26.9021 133.531 26.5005C133.127 26.0893 132.81 25.5586 132.579 24.9083C132.358 24.2581 132.247 23.4739 132.247 22.5559V22.269C132.247 21.3893 132.363 20.6386 132.593 20.017C132.834 19.3859 133.156 18.8695 133.559 18.4679C133.973 18.0662 134.453 17.7698 135.001 17.5785C135.559 17.3873 136.155 17.2917 136.789 17.2917C137.356 17.2917 137.89 17.3586 138.389 17.4925C138.889 17.6264 139.327 17.8367 139.702 18.1236C140.086 18.4009 140.394 18.7595 140.624 19.1994C140.865 19.6393 141.004 20.1605 141.042 20.7629H138.793C138.687 20.1891 138.457 19.7684 138.101 19.5006C137.745 19.2329 137.308 19.099 136.789 19.099C136.491 19.099 136.203 19.1516 135.924 19.2568C135.655 19.362 135.415 19.5389 135.203 19.7875C134.992 20.0361 134.819 20.3613 134.684 20.7629C134.559 21.1645 134.497 21.6666 134.497 22.269V22.5559C134.497 23.187 134.564 23.7178 134.698 24.1481C134.833 24.5688 135.006 24.9083 135.217 25.1665C135.439 25.4151 135.684 25.5968 135.953 25.7116C136.232 25.8168 136.51 25.8694 136.789 25.8694C137.337 25.8694 137.789 25.7307 138.144 25.4534C138.5 25.1665 138.716 24.7505 138.793 24.2055H141.042C140.994 24.8366 140.855 25.3721 140.624 25.812C140.394 26.2519 140.091 26.6105 139.716 26.8878C139.341 27.1651 138.904 27.3659 138.404 27.4902C137.904 27.6145 137.366 27.6767 136.789 27.6767Z" fill="white" style="--darkreader-inline-fill: #e8e6e3;" data-darkreader-inline-fill=""></path>
    <path d="M143.785 17.4638H145.947V24.1337L150.345 17.4638H152.436V27.5046H150.273V20.8346L145.861 27.5046H143.785V17.4638Z" fill="white" style="--darkreader-inline-fill: #e8e6e3;" data-darkreader-inline-fill=""></path>
    <path d="M159.858 27.6767C159.194 27.6767 158.584 27.5811 158.027 27.3898C157.479 27.1986 157.003 26.9021 156.599 26.5005C156.195 26.0893 155.878 25.5586 155.648 24.9083C155.426 24.2581 155.316 23.4739 155.316 22.5559V22.269C155.316 21.3893 155.431 20.6386 155.662 20.017C155.902 19.3859 156.224 18.8695 156.628 18.4679C157.041 18.0662 157.522 17.7698 158.07 17.5785C158.627 17.3873 159.223 17.2917 159.858 17.2917C160.425 17.2917 160.958 17.3586 161.458 17.4925C161.958 17.6264 162.395 17.8367 162.77 18.1236C163.155 18.4009 163.462 18.7595 163.693 19.1994C163.933 19.6393 164.073 20.1605 164.111 20.7629H161.862C161.756 20.1891 161.525 19.7684 161.17 19.5006C160.814 19.2329 160.377 19.099 159.858 19.099C159.56 19.099 159.271 19.1516 158.993 19.2568C158.723 19.362 158.483 19.5389 158.272 19.7875C158.06 20.0361 157.887 20.3613 157.753 20.7629C157.628 21.1645 157.565 21.6666 157.565 22.269V22.5559C157.565 23.187 157.632 23.7178 157.767 24.1481C157.902 24.5688 158.075 24.9083 158.286 25.1665C158.507 25.4151 158.752 25.5968 159.021 25.7116C159.3 25.8168 159.579 25.8694 159.858 25.8694C160.406 25.8694 160.857 25.7307 161.213 25.4534C161.569 25.1665 161.785 24.7505 161.862 24.2055H164.111C164.063 24.8366 163.924 25.3721 163.693 25.812C163.462 26.2519 163.159 26.6105 162.785 26.8878C162.41 27.1651 161.972 27.3659 161.473 27.4902C160.973 27.6145 160.434 27.6767 159.858 27.6767Z" fill="white" style="--darkreader-inline-fill: #e8e6e3;" data-darkreader-inline-fill=""></path>
    <path d="M168.979 19.2424H165.735V17.4638H174.386V19.2424H171.142V27.5046H168.979V19.2424Z" fill="white" style="--darkreader-inline-fill: #e8e6e3;" data-darkreader-inline-fill=""></path>
    <path d="M176.832 17.4638H183.897V19.2424H179.009V21.4801H183.464V23.2014H179.009V25.7259H183.897V27.5046H176.832V17.4638Z" fill="white" style="--darkreader-inline-fill: #e8e6e3;" data-darkreader-inline-fill=""></path>
    <path d="M186.782 17.4638H188.945L192.016 23.1153L195.073 17.4638H197.163V27.5046H195.001V21.1215L192.622 25.4964H191.324L188.945 21.1215V27.5046H186.782V17.4638Z" fill="white" style="--darkreader-inline-fill: #e8e6e3;" data-darkreader-inline-fill=""></path>
    <path d="M206.072 25.4534H202.338L201.574 27.5046H199.469L203.217 17.4638H205.38L209.129 27.5046H206.851L206.072 25.4534ZM203.001 23.6747H205.423L204.212 20.1891L203.001 23.6747Z" fill="white" style="--darkreader-inline-fill: #e8e6e3;" data-darkreader-inline-fill=""></path>
    <path d="M214.909 25.7259H216.034C216.178 25.3912 216.298 24.9896 216.394 24.521C216.49 24.0429 216.567 23.5409 216.625 23.0149C216.682 22.4794 216.726 21.9343 216.755 21.3797C216.783 20.8155 216.798 20.2752 216.798 19.7588V17.4638H223.906V25.7259H225.002V29.3693H223.07V27.5046H216.841V29.3693H214.909V25.7259ZM221.743 25.7259V19.2424H218.845V20.0457C218.845 21.3558 218.783 22.4603 218.658 23.3592C218.533 24.2581 218.355 25.047 218.124 25.7259H221.743Z" fill="white" style="--darkreader-inline-fill: #e8e6e3;" data-darkreader-inline-fill=""></path>
    <path d="M227.597 17.4638H236.104V27.5046H233.941V19.2424H229.76V27.5046H227.597V17.4638Z" fill="white" style="--darkreader-inline-fill: #e8e6e3;" data-darkreader-inline-fill=""></path>
    <path d="M243.746 27.6767C243.111 27.6767 242.506 27.5811 241.929 27.3898C241.362 27.1986 240.857 26.8973 240.415 26.4862C239.982 26.075 239.636 25.549 239.377 24.9083C239.117 24.2581 238.988 23.4739 238.988 22.5559V22.269C238.988 21.3893 239.117 20.6386 239.377 20.017C239.636 19.3859 239.982 18.8695 240.415 18.4679C240.857 18.0662 241.362 17.7698 241.929 17.5785C242.506 17.3873 243.111 17.2917 243.746 17.2917C244.38 17.2917 244.981 17.3873 245.548 17.5785C246.125 17.7698 246.629 18.0662 247.062 18.4679C247.504 18.8695 247.855 19.3859 248.114 20.017C248.374 20.6386 248.504 21.3893 248.504 22.269V22.5559C248.504 23.4739 248.374 24.2581 248.114 24.9083C247.855 25.549 247.504 26.075 247.062 26.4862C246.629 26.8973 246.125 27.1986 245.548 27.3898C244.981 27.5811 244.38 27.6767 243.746 27.6767ZM243.746 25.8694C244.072 25.8694 244.385 25.8168 244.683 25.7116C244.99 25.5968 245.259 25.4104 245.49 25.1522C245.721 24.894 245.903 24.5545 246.038 24.1337C246.182 23.713 246.254 23.187 246.254 22.5559V22.269C246.254 21.6761 246.182 21.1789 246.038 20.7773C245.903 20.3756 245.721 20.0505 245.49 19.8019C245.259 19.5532 244.99 19.3763 244.683 19.2711C244.385 19.1564 244.072 19.099 243.746 19.099C243.419 19.099 243.102 19.1564 242.794 19.2711C242.496 19.3763 242.232 19.5532 242.001 19.8019C241.77 20.0505 241.583 20.3756 241.439 20.7773C241.304 21.1789 241.237 21.6761 241.237 22.269V22.5559C241.237 23.187 241.304 23.713 241.439 24.1337C241.583 24.5545 241.77 24.894 242.001 25.1522C242.232 25.4104 242.496 25.5968 242.794 25.7116C243.102 25.8168 243.419 25.8694 243.746 25.8694Z" fill="white" style="--darkreader-inline-fill: #e8e6e3;" data-darkreader-inline-fill=""></path>
</svg>
